# xmcd
#
# Track frame offsets:
#	150
#	13256
#	25805
#	39747
#	53487
#	64986
#	80593
#	92586
#	100441
#	111135
#	132452
#	148467
#	161216
#	176261
#	191347
#
# Disc length: 2748 seconds
#
# Revision: 1
# Processed by: cddbd v1.5.2PL0 Copyright (c) Steve Scherf et al.
# Submitted via: audiograbber 1.83.01
#
DISCID=d30aba0f
DTITLE=Perry Como - PERRY COMO - Blue Collection [CD 1)
DYEAR=1900
DGENRE=Crooner
TTITLE0=Hoop Dee-Doo
TTITLE1=I'm confession (That I love you)
TTITLE2=I'm always chasing rainbows
TTITLE3=Far away places
TTITLE4=Goodnight , sweet Jesus
TTITLE5=Anema E Core (With all my heart and soul)
TTITLE6=I'm gonna love that gal
TTITLE7=Faithful forever
TTITLE8=I wanna go home (with you)
TTITLE9=Ave Maria
TTITLE10=Bali Haï
TTITLE11=Have I stayed away to long
TTITLE12=I believe
TTITLE13=Forever and ever
TTITLE14=Hush little darling
EXTD=
EXTT0=
EXTT1=
EXTT2=
EXTT3=
EXTT4=
EXTT5=
EXTT6=
EXTT7=
EXTT8=
EXTT9=
EXTT10=
EXTT11=
EXTT12=
EXTT13=
EXTT14=
PLAYORDER=
